<svg width="52" height="52" viewBox="0 0 52 52" fill="none" xmlns="http://www.w3.org/2000/svg">
<path d="M26 0.166748C11.74 0.166748 0.166687 11.7401 0.166687 26.0001C0.166687 40.2601 11.74 51.8334 26 51.8334C40.26 51.8334 51.8334 40.2601 51.8334 26.0001C51.8334 11.7401 40.26 0.166748 26 0.166748ZM26 7.91675C30.2884 7.91675 33.75 11.3784 33.75 15.6667C33.75 19.9551 30.2884 23.4167 26 23.4167C21.7117 23.4167 18.25 19.9551 18.25 15.6667C18.25 11.3784 21.7117 7.91675 26 7.91675ZM26 44.6001C19.5417 44.6001 13.8325 41.2934 10.5 36.2817C10.5775 31.1409 20.8334 28.3251 26 28.3251C31.1409 28.3251 41.4225 31.1409 41.5 36.2817C38.1675 41.2934 32.4584 44.6001 26 44.6001Z" fill="black"/>
</svg>
